<?xml version="1.0" encoding="utf-8"?>
<!-- Generator: Adobe Illustrator 23.0.1, SVG Export Plug-In . SVG Version: 6.00 Build 0)  -->
<svg version="1.1" id="Layer_1" xmlns="http://www.w3.org/2000/svg" xmlns:xlink="http://www.w3.org/1999/xlink" x="0px" y="0px"
	 viewBox="0 0 1000 1000" style="enable-background:new 0 0 1000 1000;" xml:space="preserve">
<style type="text/css">
	.st0{fill:#2E3E5F;}
	.st1{fill:#8398B5;}
</style>
<g>
	<g>
		<path class="st0" d="M99.5,671.4h5v25.4h-5V671.4z"/>
		<path class="st0" d="M110,671.4h8.1l6,19.2l0,0l6-19.2h8.1v25.4h-5v-20.9l0,0l-6.7,20.9h-5l-6.7-21l0,0v21h-5L110,671.4L110,671.4
			z"/>
		<path class="st0" d="M151.4,671.4h5.7l9.9,25.4h-5.6l-2.2-5.8H149l-2.2,5.8h-5.3L151.4,671.4z M154.2,676.4L154.2,676.4l-3.7,10.5
			h7.4L154.2,676.4z"/>
		<path class="st0" d="M170.3,671.4h8.1l6,19.2l0,0l6-19.2h8.1v25.4h-5v-20.9l0,0l-6.7,20.9h-5l-6.8-20.9l0,0v20.9h-5v-25.4
			L170.3,671.4L170.3,671.4L170.3,671.4z"/>
		<path class="st0" d="M221.8,671.4h5.7l9.9,25.3h-5.6l-2.2-5.8h-10.3l-2.2,5.9h-5.2L221.8,671.4z M224.6,676.4L224.6,676.4
			l-3.7,10.5h7.4L224.6,676.4z"/>
		<path class="st0" d="M240.7,671.4h8.9c1.1,0,2.1,0.1,3.2,0.3c0.9,0.2,1.7,0.5,2.5,1c0.7,0.5,1.4,1.2,1.8,2c0.5,1,0.7,2,0.6,3.1
			c0,0.7-0.1,1.5-0.4,2.1c-0.2,0.6-0.6,1.2-1,1.7c-0.5,0.5-1,0.9-1.6,1.2c-0.6,0.3-1.3,0.5-2,0.7l0,0c0.8,0.1,1.5,0.3,2.3,0.5
			c0.7,0.3,1.3,0.7,1.8,1.2c0.5,0.5,1,1.1,1.2,1.8c0.3,0.7,0.5,1.5,0.4,2.3c0,1.2-0.2,2.3-0.7,3.4c-0.5,0.9-1.1,1.7-1.9,2.3
			c-0.9,0.6-1.8,1-2.8,1.3c-1.1,0.3-2.3,0.4-3.4,0.4h-8.7L240.7,671.4L240.7,671.4z M245.7,681.6h2.2c0.5,0,1.1,0,1.6,0
			c0.5-0.1,1-0.2,1.5-0.5c0.4-0.2,0.8-0.5,1.1-0.9c0.3-0.5,0.5-1,0.4-1.6c0-0.6-0.1-1.3-0.4-1.8c-0.3-0.4-0.7-0.7-1.1-0.9
			c-0.5-0.2-1-0.3-1.6-0.3h-1.8h-1.8v6.2L245.7,681.6z M245.7,692.7h2.5c0.6,0,1.2-0.1,1.8-0.1c0.6-0.1,1.2-0.3,1.7-0.5
			c0.5-0.2,0.9-0.6,1.2-1.1c0.3-0.5,0.5-1.2,0.5-1.8c0-0.6-0.1-1.3-0.3-1.8c-0.3-0.6-0.7-1-1.3-1.3l-0.8-0.4
			c-0.3-0.1-0.6-0.2-0.9-0.2h-0.9h-3.4v7.3L245.7,692.7z"/>
		<path class="st0" d="M262.8,671.4h7.3c0.8,0,1.7,0,2.5,0.1c0.8,0.1,1.7,0.2,2.5,0.4c0.8,0.2,1.7,0.5,2.5,0.8
			c0.8,0.3,1.5,0.7,2.3,1.2c0.8,0.5,1.5,1.2,2.1,2c0.6,0.8,1,1.6,1.3,2.5c0.3,0.9,0.6,1.8,0.7,2.8c0.1,1,0.2,1.9,0.2,2.9
			c0.1,2-0.3,4.1-1.1,5.9c-0.7,1.5-1.7,2.9-3,3.9c-1.4,1-2.9,1.8-4.6,2.2c-1.9,0.5-3.9,0.7-5.9,0.6h-6.8L262.8,671.4L262.8,671.4
			L262.8,671.4z M267.8,692.7h2.8c1.2,0,2.3-0.2,3.4-0.7c1-0.4,1.9-1,2.6-1.8c0.7-0.8,1.3-1.7,1.7-2.8c0.4-1.1,0.6-2.3,0.6-3.4
			c0-1.2-0.2-2.3-0.6-3.4c-0.4-1-0.9-1.9-1.7-2.7c-0.7-0.8-1.6-1.4-2.6-1.8c-1.1-0.5-2.2-0.7-3.4-0.7h-2.7v17.4L267.8,692.7z"/>
		<path class="st0" d="M288.8,671.4h5V686c0,0.9,0.1,1.8,0.2,2.6c0.1,0.8,0.4,1.6,0.8,2.3c0.4,0.7,0.9,1.2,1.6,1.6
			c0.8,0.4,1.6,0.6,2.5,0.6c0.9,0,1.8-0.2,2.6-0.6c0.7-0.4,1.2-0.9,1.6-1.6c0.4-0.7,0.7-1.5,0.8-2.3c0.1-0.9,0.2-1.8,0.2-2.7v-14.6
			h5v16.2c0,1.5-0.2,3-0.7,4.4c-0.4,1.1-1.1,2.2-2,3c-0.9,0.8-2.1,1.4-3.3,1.7c-2.8,0.7-5.8,0.7-8.7,0c-1.2-0.3-2.3-0.9-3.2-1.7
			c-0.9-0.8-1.6-1.8-2-3c-0.5-1.4-0.7-2.9-0.7-4.4v-16.2L288.8,671.4z"/>
		<path class="st0" d="M315.1,671.4h5v21.3h9.9v4.1h-14.9L315.1,671.4L315.1,671.4z"/>
		<path class="st0" d="M332.8,671.4h6.9h2.5c0.8,0,1.7,0.1,2.5,0.3c0.7,0.1,1.5,0.3,2.2,0.6c0.7,0.3,1.3,0.7,1.8,1.2
			c0.5,0.5,0.9,1.2,1.2,1.9c0.3,0.9,0.4,1.9,0.4,2.8c0,0.8-0.1,1.5-0.4,2.2c-0.2,0.7-0.6,1.3-1.1,1.8c-0.5,0.5-1,0.9-1.7,1.2
			c-0.7,0.3-1.4,0.6-2.1,0.6l0,0c0.3,0,0.7,0.2,0.9,0.3c0.3,0.2,0.5,0.4,0.7,0.6c0.2,0.2,0.4,0.5,0.6,0.8c0.2,0.3,0.3,0.6,0.4,0.9
			l4,9.9h-5.6l-3.1-7.9c-0.2-0.4-0.3-0.8-0.5-1.2c-0.2-0.3-0.4-0.6-0.7-0.8c-0.3-0.2-0.6-0.4-0.9-0.4c-0.4-0.1-0.9-0.1-1.4-0.1h-1.6
			v10.7h-5L332.8,671.4L332.8,671.4L332.8,671.4L332.8,671.4z M337.8,682.2h1.7h1.3c0.5,0,0.9-0.1,1.4-0.2c0.4-0.1,0.9-0.3,1.3-0.5
			c0.4-0.2,0.7-0.5,0.9-0.9c0.2-0.3,0.3-0.6,0.3-0.9c0-0.3,0-0.6,0-1c0-0.7-0.1-1.3-0.5-1.9c-0.3-0.4-0.8-0.8-1.3-1
			c-0.6-0.2-1.1-0.3-1.7-0.4h-1.9h-1.7v6.8L337.8,682.2z"/>
		<path class="st0" d="M362.6,671.4h5.7l9.9,25.3h-5.6l-2.1-5.8h-10.3l-2.3,5.9h-5.3L362.6,671.4z M365.4,676.4L365.4,676.4
			l-3.6,10.4h7.4L365.4,676.4z"/>
		<path class="st0" d="M381.5,671.4h5v10.2h10.1v-10.2h5v25.4h-5v-11.1h-10.1v11.1h-5L381.5,671.4L381.5,671.4z"/>
		<path class="st0" d="M407.8,671.4h8.1l6,19.2l0,0l6-19.2h8.1v25.4h-5v-20.9l0,0l-6.8,20.9h-5l-6.8-20.9l0,0v20.9h-5v-25.4H407.8z"
			/>
		<path class="st0" d="M449.1,671.4h5.7l9.9,25.3h-5.6l-2.2-5.8h-10.3l-2.2,5.9h-5.3L449.1,671.4z M451.9,676.4L451.9,676.4
			l-3.6,10.4h7.4L451.9,676.4z"/>
		<path class="st0" d="M467.7,671.4h6.2l9.6,18.9l0,0v-18.9h5v25.4h-6.3l-9.7-18.9l0,0v18.9h-5v-25.4H467.7z"/>
		<path class="st0" d="M504.2,671.4h8.9c1.1,0,2.1,0.1,3.2,0.3c0.9,0.2,1.7,0.5,2.5,1c0.8,0.5,1.4,1.2,1.8,2c0.5,1,0.7,2,0.6,3.1
			c0,0.7-0.1,1.5-0.4,2.1c-0.2,0.6-0.6,1.2-1,1.7c-0.5,0.5-1,0.9-1.6,1.2c-0.6,0.3-1.3,0.5-2,0.7l0,0c0.8,0.1,1.5,0.3,2.3,0.5
			c0.7,0.3,1.3,0.7,1.8,1.2c0.5,0.5,1,1.1,1.2,1.8c0.3,0.7,0.5,1.5,0.4,2.3c0,1.2-0.2,2.3-0.7,3.4c-0.5,0.9-1.1,1.7-1.9,2.3
			c-0.9,0.6-1.8,1-2.8,1.3c-1.1,0.3-2.3,0.4-3.4,0.4h-8.9v-25.2L504.2,671.4L504.2,671.4z M509.2,681.6h2.2c0.5,0,1.1,0,1.6,0
			c0.5-0.1,1-0.2,1.5-0.5c0.4-0.2,0.8-0.5,1.1-0.9c0.3-0.5,0.5-1,0.4-1.6c0-0.6-0.1-1.3-0.4-1.8c-0.3-0.4-0.7-0.7-1.1-0.9
			c-0.5-0.2-1-0.3-1.6-0.3h-1.8h-1.8v6.2L509.2,681.6z M509.2,692.7h2.5c0.6,0,1.2-0.1,1.8-0.1c0.6-0.1,1.2-0.3,1.7-0.5
			c0.5-0.2,0.9-0.6,1.2-1.1c0.3-0.5,0.5-1.2,0.5-1.8c0-0.6-0.1-1.3-0.3-1.8c-0.3-0.6-0.7-1-1.3-1.3l-0.8-0.4
			c-0.3-0.1-0.6-0.2-0.9-0.2h-0.9h-3.4v7.3L509.2,692.7z"/>
		<path class="st0" d="M525.9,671.4h5v25.4h-5V671.4z"/>
		<path class="st0" d="M536.1,671.4h6.2l9.6,18.9l0,0v-18.9h5v25.4h-6.2l-9.7-18.9l0,0v18.9h-5L536.1,671.4L536.1,671.4z"/>
		<path class="st0" d="M572.6,671.4h14v4h-9v6.2h8.5v4h-8.5v11.2h-5L572.6,671.4L572.6,671.4L572.6,671.4z"/>
		<path class="st0" d="M596.8,671.4h5.7l9.9,25.3h-5.6l-2.2-5.8h-10.3l-2.2,5.9H587L596.8,671.4z M599.6,676.4L599.6,676.4
			l-3.7,10.5h7.4L599.6,676.4z"/>
		<path class="st0" d="M615.3,671.4h5v25.4h-5V671.4z"/>
		<path class="st0" d="M639.4,676.1c-0.8-0.4-1.6-0.6-2.5-0.8c-0.9-0.2-1.7-0.3-2.6-0.3c-0.5,0-1.1,0.1-1.6,0.2
			c-0.5,0.1-0.9,0.3-1.3,0.6c-0.4,0.3-0.6,0.7-0.8,1.1c-0.2,0.5-0.3,1-0.3,1.6c0,0.4,0.1,0.8,0.4,1.2c0.3,0.4,0.6,0.7,1,0.9
			c0.5,0.3,0.9,0.5,1.4,0.7l1.7,0.7l1.8,0.8c0.6,0.3,1.2,0.6,1.7,1c0.6,0.4,1.1,0.8,1.5,1.3c0.5,0.5,0.8,1.1,1.1,1.7
			c0.2,0.4,0.3,0.9,0.3,1.4c0,0.5,0,0.9,0,1.4c0,1.2-0.2,2.5-0.8,3.6c-0.5,1-1.2,1.8-2.1,2.5c-0.9,0.6-1.9,1.1-3,1.3
			c-1.2,0.3-2.4,0.4-3.6,0.4c-1.1-0.1-2.1-0.2-3.2-0.4c-1.1-0.2-2.2-0.4-3.2-0.7l0.5-4.6c0.9,0.5,1.8,0.9,2.8,1.1c1,0.3,2,0.4,3,0.4
			c0.5,0,1-0.1,1.5-0.2c0.5-0.1,1-0.3,1.4-0.6c0.4-0.3,0.8-0.6,1.1-1c0.3-0.4,0.4-1,0.4-1.5c0-0.3,0-0.5,0-0.8
			c-0.1-0.3-0.2-0.5-0.3-0.7c-0.2-0.2-0.4-0.4-0.6-0.6c-0.2-0.2-0.4-0.4-0.7-0.5c-0.6-0.3-1.2-0.6-1.9-0.9l-1.9-0.8l-1-0.4l-1-0.5
			c-0.6-0.3-1.1-0.7-1.6-1.1c-0.4-0.4-0.8-0.8-1.1-1.3c-0.3-0.5-0.5-1-0.7-1.6c-0.2-0.6-0.2-1.3-0.2-1.9c0-0.6,0.1-1.2,0.2-1.7
			c0.1-0.6,0.3-1.1,0.5-1.6c0.2-0.5,0.5-1,0.9-1.5c0.4-0.5,0.8-0.8,1.3-1.2c0.9-0.6,1.9-1,2.9-1.3c1-0.3,2.1-0.4,3.2-0.4
			c1,0,2.1,0.1,3.1,0.2c1,0.1,2,0.4,3,0.7L639.4,676.1z"/>
		<path class="st0" d="M653.2,671.4h5.7l9.9,25.3h-5.6l-2.2-5.8h-10.2l-2.3,5.9h-5.3L653.2,671.4z M656,676.4L656,676.4l-3.6,10.4
			h7.4L656,676.4z"/>
		<path class="st0" d="M672.1,671.4h5v21.3h9.9v4.1h-14.9L672.1,671.4L672.1,671.4z"/>
		<path class="st0" d="M700.1,671.4h5V686c0,0.9,0.1,1.8,0.2,2.6c0.1,0.8,0.4,1.6,0.8,2.3c0.4,0.7,0.9,1.2,1.6,1.6
			c0.8,0.4,1.6,0.6,2.5,0.6c0.9,0,1.8-0.2,2.6-0.6c0.7-0.4,1.2-0.9,1.6-1.6c0.4-0.7,0.7-1.5,0.8-2.3c0.1-0.9,0.2-1.8,0.2-2.7v-14.6
			h5v16.2c0,1.5-0.2,3-0.7,4.4c-0.4,1.1-1.1,2.2-2,3c-0.9,0.8-2.1,1.4-3.3,1.7c-2.8,0.7-5.8,0.7-8.7,0c-1.2-0.3-2.3-0.9-3.2-1.7
			c-0.9-0.8-1.6-1.8-2-3c-0.5-1.4-0.7-2.9-0.7-4.4v-16.2L700.1,671.4z"/>
		<path class="st0" d="M726.2,671.4h6.2l9.6,18.9l0,0v-18.9h5v25.4h-6.2l-9.7-18.9l0,0v18.9h-5L726.2,671.4L726.2,671.4z"/>
		<path class="st0" d="M752.1,671.4h5v25.4h-5V671.4z"/>
		<path class="st0" d="M760.1,671.4h5.4l6.5,19.9l0,0l6.4-19.9h5l-8.3,25.4h-6.2L760.1,671.4z"/>
		<path class="st0" d="M786.8,671.4h14.9v4h-9.9v6.2h9v4h-9v7.1h9.9v4.1h-14.9L786.8,671.4L786.8,671.4z"/>
		<path class="st0" d="M806.5,671.4h6.9h2.5c0.8,0,1.7,0.1,2.5,0.3c0.7,0.1,1.5,0.3,2.2,0.6c0.7,0.3,1.2,0.7,1.7,1.2
			c0.5,0.5,0.9,1.2,1.2,1.9c0.3,0.9,0.4,1.9,0.4,2.8c0,0.8-0.1,1.5-0.4,2.2c-0.2,0.7-0.6,1.3-1.1,1.8c-0.5,0.5-1,0.9-1.7,1.2
			c-0.7,0.3-1.4,0.6-2.1,0.6l0,0c0.3,0,0.7,0.2,0.9,0.3c0.3,0.2,0.5,0.4,0.7,0.6c0.2,0.2,0.4,0.5,0.6,0.8c0.2,0.3,0.3,0.6,0.4,0.9
			l4,9.9h-5.6l-3.1-7.9c-0.2-0.4-0.3-0.8-0.5-1.2c-0.2-0.3-0.4-0.6-0.7-0.8c-0.3-0.2-0.6-0.4-0.9-0.4c-0.4-0.1-0.9-0.1-1.4-0.1h-1.6
			v10.7h-5v-25.4L806.5,671.4L806.5,671.4L806.5,671.4L806.5,671.4z M811.5,682.2h1.7h1.3c0.5,0,0.9-0.1,1.4-0.2
			c0.5-0.1,0.9-0.3,1.3-0.5c0.4-0.2,0.7-0.5,0.9-0.9c0.2-0.3,0.3-0.6,0.3-0.9c0-0.3,0-0.6,0-1c0-0.7-0.1-1.3-0.5-1.9
			c-0.3-0.4-0.8-0.8-1.3-1c-0.6-0.2-1.1-0.3-1.7-0.4H813h-1.5L811.5,682.2L811.5,682.2z"/>
		<path class="st0" d="M842.6,676.1c-0.8-0.4-1.6-0.6-2.5-0.8c-0.9-0.2-1.7-0.3-2.6-0.3c-0.5,0-1.1,0.1-1.6,0.2
			c-0.5,0.1-0.9,0.3-1.3,0.6c-0.4,0.3-0.7,0.7-0.8,1.1c-0.2,0.5-0.3,1-0.3,1.6c0,0.4,0.1,0.8,0.4,1.2c0.3,0.4,0.6,0.7,1,0.9
			c0.5,0.3,0.9,0.5,1.4,0.7l1.7,0.7l1.8,0.8c0.6,0.3,1.2,0.6,1.7,1c0.5,0.4,1,0.8,1.5,1.3c0.5,0.5,0.8,1.1,1.1,1.7
			c0.2,0.4,0.3,0.9,0.3,1.4c0,0.5,0,0.9,0,1.4c0,1.2-0.2,2.5-0.8,3.6c-0.5,1-1.2,1.8-2.1,2.5c-0.9,0.6-1.9,1.1-3,1.3
			c-1.2,0.3-2.4,0.4-3.6,0.4c-1.1,0-2.2-0.1-3.3-0.3c-1.1-0.2-2.1-0.4-3.2-0.7l0.5-4.6c0.9,0.5,1.8,0.9,2.8,1.1c1,0.3,2,0.4,3,0.4
			c0.5,0,1-0.1,1.5-0.2c0.5-0.1,1-0.3,1.4-0.6c0.4-0.3,0.8-0.6,1.1-1c0.3-0.4,0.4-1,0.4-1.5c0-0.3,0-0.5,0-0.8
			c-0.1-0.3-0.2-0.5-0.3-0.7c-0.2-0.2-0.4-0.4-0.6-0.6c-0.2-0.2-0.5-0.4-0.7-0.5c-0.6-0.3-1.2-0.6-1.9-0.9l-1.9-0.8l-1-0.4l-1-0.5
			c-0.6-0.3-1.1-0.7-1.6-1.1c-0.4-0.4-0.8-0.8-1.1-1.3c-0.3-0.5-0.5-1-0.7-1.6c-0.2-0.6-0.2-1.3-0.2-1.9c0-0.6,0-1.2,0.1-1.7
			c0.1-0.6,0.3-1.1,0.5-1.6c0.2-0.5,0.5-1,0.9-1.5c0.4-0.5,0.8-0.8,1.3-1.2c0.9-0.6,1.9-1,2.9-1.3c1-0.3,2.1-0.4,3.1-0.4
			c1,0,2.1,0.1,3.1,0.2c1,0.1,2,0.4,3,0.7L842.6,676.1z"/>
		<path class="st0" d="M848.8,671.4h5v25.4h-5V671.4z"/>
		<path class="st0" d="M863.9,675.4h-7.2v-4h19.6v4H869v21.4h-5v-21.3L863.9,675.4z"/>
		<path class="st0" d="M886.1,686.7l-9.3-15.3h5.9l6,10.6l6.1-10.6h5.4l-9.1,15.3v9.9h-5L886.1,686.7L886.1,686.7z"/>
		<rect x="886" y="645.5" class="st0" width="6.7" height="6.7"/>
		<rect x="705.1" y="608" class="st0" width="9.2" height="34.3"/>
		<path class="st0" d="M685.7,636.3v-17.7h-9.2v18h5.3C683.2,636.6,684.5,636.5,685.7,636.3z"/>
		<path class="st0" d="M664,629.5c0-1.7-0.2-3.3-0.7-5c-0.4-1.5-1.2-2.9-2.2-4.1c-1-1.2-2.3-2.1-3.8-2.7c-1.9-0.7-3.9-1-6-0.9H639
			v19.9h-5.9c-4.4,0-8.9-0.3-8.9-8.1V608H615v18.6c0,13,5,15.7,17.7,15.7h18.8c1.7,0,3.3-0.3,5-0.7c1.4-0.4,2.7-1.1,3.8-2
			c1.2-1,2.1-2.3,2.8-3.8C663.8,633.8,664.1,631.7,664,629.5z M655.7,634.1c-1.1,2.5-4.5,2.5-6.8,2.5H646v-14h2.9
			c2.1-0.1,4.2,0.4,6,1.5c1.1,1.6,1.6,3.6,1.4,5.6C656.4,631.1,656.2,632.7,655.7,634.1L655.7,634.1z"/>
		<path class="st0" d="M355,628.5v-9.9l0,0v10.9C355,629.2,355,628.8,355,628.5z"/>
		<path class="st0" d="M385.6,636.6c0.1-0.2,0.3-0.4,0.4-0.7c0.8-2,1.1-4.2,1-6.4c0-1.7-0.2-3.3-0.7-5c-0.4-1.5-1.2-2.9-2.2-4.1
			c-1-1.2-2.3-2.1-3.7-2.7c-1.9-0.7-3.9-1-6-0.9h-12.4v19.9h-6.9c0,1.9-0.1,3.9-0.5,5.8h7.7l0.4-5.8h23L385.6,636.6z M369.1,622.6
			h2.9c2.1-0.1,4.2,0.4,6,1.5c1.1,1.6,1.6,3.6,1.4,5.6c0.1,1.5-0.1,3-0.6,4.4c-1.1,2.5-4.5,2.5-6.8,2.5h-2.9V622.6L369.1,622.6z"/>
		<path class="st0" d="M210,628.5v-9.9h-9.2v8.1c0,4.4-0.3,7.6-0.3,9.9h9.5C210,636.6,210,636.3,210,628.5z"/>
		<rect x="738" y="607.9" class="st0" width="6.7" height="6.7"/>
		<rect x="334.4" y="607.9" class="st0" width="6.7" height="6.7"/>
		<rect x="223.2" y="607.9" class="st0" width="6.7" height="6.7"/>
		<path class="st0" d="M609.6,626.8L598,611.7H588l11.9,15.2l-6.2,9c-2.4-4.3-2.2-9.5,0.5-13.6l-5.2-6.8c-1.5,3.1-2.4,6.3-2.9,9.7
			c-5.8,1.2-14.2,9.9-15.3,17.4h7.7c0-4.8,4.4-9.5,7.7-9.5c0,3.4,1,6.7,2.7,9.6h9.4L609.6,626.8z"/>
		<rect x="746.9" y="607.9" class="st0" width="6.7" height="6.7"/>
		<path class="st0" d="M682.4,642.4c1.2,0,2.4,0,3.4,0c10.1-0.5,14.2-3.9,14.2-15.6V608h-9.3v20.5c0,5.4-2.2,7.2-5,7.8
			c-1.3,0.2-2.6,0.3-3.9,0.3h-12.8v5.8L682.4,642.4L682.4,642.4L682.4,642.4L682.4,642.4z"/>
		<polygon class="st0" points="155.5,626.3 148.1,619.5 148.1,636.6 155.5,636.6 		"/>
		<polygon class="st0" points="154.4,618.2 151.7,618.2 154.4,620.6 		"/>
		<rect x="469.8" y="608" class="st0" width="9.2" height="34.3"/>
		<path class="st0" d="M455.6,628.5c0,6.2-2.9,7.6-6.3,8v1.3c0,1.5-0.1,3.1-0.3,4.6c11.2-0.3,15.7-3.4,15.7-15.7V608h-9.2
			L455.6,628.5L455.6,628.5z"/>
		<path class="st0" d="M355,636.4v-17.8h-9.7v19.9c0,7.6-4.1,8.4-8.5,8.5h-0.3v6.1h0.3c10.8,0,16.2-2.1,17.7-10.6
			c0.3-1.9,0.5-3.8,0.5-5.8C355,636.6,355,636.4,355,636.4z"/>
		<path class="st0" d="M117.2,646.8v6.1c9.9-0.2,15.1-2.5,16.6-10.5h-9l0.4-5.8h9.1c0,0,0,0,0-0.2v-28.5h-9.7v30.4
			c0,7.2-3.7,8.3-7.8,8.5L117.2,646.8L117.2,646.8z"/>
		<path class="st0" d="M336.5,646.8h0.3c-4.3,0-8.5-0.8-8.5-8.5v-13.2h-9.7v11.2c0,13.3,5,16.4,17.5,16.5h0.3V646.8z"/>
		<path class="st0" d="M115.5,652.9h1.7v-6.1h-0.4c-4.1-0.1-7.8-1.2-7.8-8.5v-13.2h-9.7v11.2C99.4,649.2,104,652.5,115.5,652.9z"/>
		<path class="st0" d="M449.3,636.5v-6.1H440v9.2c0,7.8-4.5,8.1-8.9,8.1h-3v5.8h3.5c11,0,16.3-2.1,17.4-11.1
			c0.2-1.5,0.3-3.1,0.3-4.6L449.3,636.5L449.3,636.5z"/>
		<path class="st0" d="M830,620.5c-1-1.2-2.3-2.1-3.8-2.7c-1.9-0.7-3.9-1-6-0.9h-12.4v19.9h-24.3l9.5-7.3v-9.2l-14.9,11.6
			c-2.8-2.9-5.9-5.4-9.4-7.4c4.6-2.5,10.1-2.3,14.4,0.5l10.7-8.5l-1.4-0.5l-4.2,3.2c-8.4-3.3-16.4-4-25.2,1l0,0v9.1
			c3.5,1.9,6.7,4.4,9.4,7.3h-18.9v-19.9h-13.6c-2.2-0.1-4.4,0.2-6.5,0.9c-1.6,0.6-3,1.5-4.1,2.7c-1.1,1.2-1.9,2.6-2.4,4.1
			c-0.5,1.6-0.7,3.3-0.7,5c-0.1,2.2,0.3,4.3,1.1,6.4c0.7,1.5,1.7,2.9,3.1,3.9c2.8,1.9,6.2,2.9,9.6,2.7h80.2c3.2,0.2,6.3-0.8,8.8-2.7
			c2.8-2.6,4.1-6.3,3.7-10.1c0-1.7-0.2-3.3-0.7-5C831.7,623,831,621.7,830,620.5z M745.8,636.6h-3.2c-2.5,0-6.1,0-7.4-2.5
			c-0.5-1.4-0.8-2.9-0.7-4.4c-0.2-2,0.3-4,1.5-5.6c2-1.1,4.2-1.6,6.5-1.5h3.2L745.8,636.6L745.8,636.6z M824.5,634.1
			c-1.1,2.5-4.5,2.5-6.8,2.5h-3v-14h2.9c2.1-0.1,4.2,0.4,6,1.5c1.1,1.6,1.6,3.6,1.4,5.6C825.2,631.1,825,632.7,824.5,634.1z"/>
		<path class="st0" d="M859.5,642.4H900v-8.4c0-7.4-5-15.7-17.7-15.7h-19v6.9h18.7c4.7-0.1,8.6,3.5,8.9,8.1v3.4h-31
			c-4.4,0-8.9-0.3-8.9-8.1V608h-9.2v18.6C841.8,639.6,846.8,642.4,859.5,642.4z"/>
		<path class="st0" d="M407.1,642.4h21.5v-8.4c0-7.4-5-15.7-17.7-15.7h-19v6.9h18.7c4.7-0.1,8.6,3.5,8.9,8.1v3.4h-56.8l-0.4,5.8
			H407.1L407.1,642.4z"/>
		<path class="st0" d="M124.8,642.4h35.1v-5.8h31.2v-2.6c0-7.4-5-15.7-17.7-15.7h-19v2.5l3.6,3.2l-1.1,1.3l0,0H173
			c4.7-0.2,8.6,3.4,8.9,8.1v3.4h-56.8L124.8,642.4z"/>
		<rect x="518" y="623.4" class="st0" width="9.2" height="12.8"/>
		<polygon class="st0" points="159.9,642.4 169.6,642.4 191.1,642.4 210.1,642.4 210.1,642.3 210.1,636.6 200.5,636.6 191.1,636.6 
			159.9,636.6 		"/>
		<path class="st0" d="M559.2,636.1h-2.8c-2.2,0-5.6,0-6.8-2.5c-0.5-1.4-0.7-2.9-0.6-4.4c-0.2-2,0.3-3.9,1.4-5.6
			c1.8-1.1,3.9-1.6,6-1.5h2.8v-5.8H554c-2-0.1-4.1,0.3-6,0.9c-1.5,0.6-2.8,1.5-3.8,2.7c-1,1.2-1.7,2.6-2.2,4.1
			c-0.5,1.6-0.7,3.3-0.7,5c-0.1,2.2,0.2,4.3,1,6.4c0.1,0.3,0.3,0.5,0.4,0.8h16.4l0,0L559.2,636.1L559.2,636.1z"/>
		<path class="st0" d="M507.1,634.2c0.5-1.6,0.7-3.3,0.7-5c0.1-2.2-0.2-4.3-1-6.4c-0.6-1.5-1.6-2.7-2.8-3.8c-1.1-1-2.4-1.7-3.8-2
			c-1.6-0.4-3.3-0.7-5-0.7h-6.1v5.9h3.6c2.2,0,5.6,0,6.8,2.5c0.5,1.4,0.7,2.9,0.6,4.4c0.2,2-0.3,3.9-1.4,5.6c-1.8,1.1-3.9,1.6-6,1.5
			h13.5C506.6,635.6,506.9,634.9,507.1,634.2z"/>
		<polygon class="st0" points="559,642.4 559,641.9 559,636.6 559,636.2 542.7,636.2 527.2,636.2 518,636.2 506.2,636.2 
			492.7,636.2 489,636.2 489,641.9 489,642.4 535.7,642.4 		"/>
		<rect x="512" y="645.5" class="st0" width="6.7" height="6.7"/>
		<rect x="200.4" y="645.5" class="st0" width="6.7" height="6.7"/>
		<rect x="191" y="645.5" class="st0" width="6.7" height="6.7"/>
		<polygon class="st0" points="156.8,625.1 156.9,625.1 158,623.8 154.4,620.6 151.7,618.2 146.3,613.5 145.3,614.6 145.1,614.8 		
			"/>
		<path class="st0" d="M241.3,624.5c-0.5-1.5-1.2-2.9-2.3-4.1c-1-1.2-2.3-2.1-3.8-2.7c-1.9-0.7-3.9-1-6-0.9h-12.4v19.9h-4.3v5.8
			h16.8c1.7,0,3.3-0.3,5-0.7c1.4-0.4,2.7-1.1,3.8-2c1.2-1,2.1-2.3,2.8-3.8c0.8-2,1.1-4.2,1-6.4C241.9,627.9,241.7,626.2,241.3,624.5
			z M233.7,634.1c-1.1,2.5-4.5,2.5-6.8,2.5h-2.8v-14h2.9c2.1-0.1,4.2,0.4,6,1.5c1.1,1.6,1.6,3.6,1.4,5.6
			C234.5,631.2,234.2,632.7,233.7,634.1L233.7,634.1L233.7,634.1z"/>
		<rect x="208.9" y="636.6" class="st0" width="3.6" height="5.8"/>
		<path class="st0" d="M301.3,628.5c0,6.2-2.9,7.6-6.3,8v1.3c0,1.5-0.1,3.1-0.3,4.6c11.2-0.3,15.7-3.4,15.7-15.7v-8.1h-9.2V628.5
			L301.3,628.5L301.3,628.5z"/>
		<path class="st0" d="M286.9,628.5v-9.9l0,0v10.9C286.9,629.2,286.9,628.8,286.9,628.5z"/>
		<rect x="266.3" y="607.9" class="st0" width="6.7" height="6.7"/>
		<rect x="293.6" y="645.9" class="st0" width="6.7" height="6.6"/>
		<path class="st0" d="M286.9,636.4v-17.8h-9.7v19.9c0,7.6-4.1,8.4-8.5,8.5h-0.3v6.1h0.4c10.8,0,16.2-2.1,17.7-10.6
			c0.3-1.9,0.5-3.8,0.5-5.8C286.9,636.6,286.9,636.4,286.9,636.4z"/>
		<path class="st0" d="M268.4,646.8h0.4c-4.3,0-8.5-0.8-8.5-8.5v-13.2h-9.7v11.2c0,13.3,5,16.4,17.5,16.5h0.3V646.8L268.4,646.8z"/>
		<rect x="285.2" y="636.5" class="st0" width="9.9" height="5.9"/>
		<path class="st0" d="M683.8,650.7H683c-0.7,0.1-1.4-0.1-1.8-0.6c-0.1-0.4-0.2-0.8-0.2-1.2c-0.1-0.5,0.1-1.1,0.4-1.5
			c0.5-0.3,1-0.4,1.6-0.4h0.7v-1.5h-1.4c-0.5,0-1.1,0.1-1.6,0.2c-0.4,0.2-0.7,0.4-1,0.7c-0.3,0.3-0.5,0.7-0.6,1.1
			c-0.1,0.4-0.2,0.9-0.2,1.3c0,0.6,0.1,1.1,0.3,1.7v0.2h4.3L683.8,650.7z"/>
		<polygon class="st0" points="684.6,652.4 684.6,652.3 684.6,650.8 684.6,650.7 683,650.7 681.4,650.7 680.6,650.7 679.4,650.7 
			678,650.7 677.7,650.7 677.7,652.3 677.7,652.4 682.3,652.4 		"/>
	</g>
	<g>
		<polygon class="st1" points="520.8,461.1 542.3,482.6 555.4,433.6 533.9,412.1 		"/>
		<polygon points="584.8,425.7 595.5,436.5 614,417.9 592.6,396.4 		"/>
		<path class="st1" d="M565.3,356.7l18.8,18.8l14-9.8c0.5-0.3,1.1-0.4,1.6-0.1c0.6,0.3,0.9,1,0.6,1.6l-5.2,19.4l21.5,21.5l18.2-68.1
			l9.6-35.6c0.2-0.8-0.3-1.6-1-1.8c-0.4-0.1-0.8,0-1.2,0.2L565.3,356.7z"/>
		<polygon class="st1" points="544.9,370.9 536.5,402.3 558,423.8 567.8,387 576.8,380.7 558,361.8 		"/>
		<path class="st0" d="M577,454.8l-76-75.7c-0.4-0.4-0.9-0.5-1.4-0.4L383.1,410l0,0l-26.9,7.2c-0.8,0.2-1.2,1-1,1.8
			c0.1,0.3,0.2,0.5,0.4,0.7l19.7,19.7L483.9,548l18.6-18.6l-96.2-96.1c-0.6-0.6-0.6-1.5,0-2.1c0.2-0.2,0.4-0.3,0.7-0.4l84.9-22.7
			c0.5-0.1,1,0,1.4,0.4l65.1,65.1L577,454.8z"/>
		<path class="st0" d="M401.6,354.2L401.6,354.2l-26.9,7.2c-0.8,0.2-1.2,1-1,1.8c0.1,0.3,0.2,0.5,0.4,0.7l19.7,19.7L521,510.8
			l18.6-18.6L424.9,377.5c-0.6-0.6-0.6-1.5,0-2.1c0.2-0.2,0.4-0.3,0.7-0.4l84.7-22.7c0.5-0.1,1,0,1.4,0.4l83.7,83.8l18.6-18.6
			l-94.5-94.5c-0.4-0.4-0.9-0.5-1.4-0.4L401.6,354.2z"/>
	</g>
</g>
</svg>
